<svg xmlns="http://www.w3.org/2000/svg" xmlns:xlink="http://www.w3.org/1999/xlink" aria-hidden="true" role="img" class="iconify iconify--logos" width="31.88" height="32" preserveAspectRatio="xMidYMid meet" viewBox="0 0 256 257"><path fill="currentColor" d="M128 0C57.3 0 0 57.3 0 128s57.3 128 128 128s128-57.3 128-128S198.7 0 128 0zm61.8 184.5c-1.5 2.2-3.7 3.7-6.1 4.2c3.1-1.8 5.5-4.9 6.6-8.5c1.3-4.2.8-8.7-1.4-12.7a15.35 15.35 0 0 0-4.2-4.6c-3.9-2.4-8.8-3.2-13.5-2.4a15.36 15.36 0 0 0-5.7 1.4c-2.5 1.5-4.5 3.6-5.8 6.2c-.3.6-.6 1.3-.8 1.9c-1.4 3.4-1.8 7.2-1 10.7c.8 3.6 2.8 6.7 5.6 8.8c2.9 2.1 6.4 3.2 10.1 3.2c3.6 0 7.1-1 10.2-3c.6-.4 1.3-.8 1.9-1.3zm-36.5 19.1c-3.6 0-7.1-1-10.1-3.1c-2.8-2.1-4.8-5.1-5.6-8.7c-.8-3.5-.4-7.3 1-10.7c.2-.6.5-1.3.8-1.9c1.3-2.5 3.3-4.6 5.8-6.1a15.36 15.36 0 0 1 5.7-1.4c4.7.8 9.6 1.6 13.5 4.2a15.36 15.36 0 0 1 4.1 4.5c2.2 4 2.7 8.5 1.4 12.7c-1.1 3.6-3.5 6.7-6.6 8.5c-2.5.5-4.6-2-6.1-4.2zm-54.3-19.1c1.5 2.2 3.7 3.7 6.1 4.2c-3.1-1.8-5.5-4.9-6.6-8.5c-1.3-4.2-.8-8.7 1.4-12.7a15.35 15.35 0 0 1 4.2-4.6c3.9-2.4 8.8-3.2 13.5-2.4a15.36 15.36 0 0 1 5.7 1.4c2.5 1.5 4.5 3.6 5.8 6.2c.3.6.6 1.3.8 1.9c1.4 3.4 1.8 7.2 1 10.7c-.8 3.6-2.8 6.7-5.6 8.8c-2.9 2.1-6.4 3.2-10.1 3.2c-3.6 0-7.1-1-10.2-3c-.6-.4-1.3-.8-1.9-1.3zm14.8-39.6c-3.6 0-7.1-1-10.1-3.1c-2.8-2.1-4.8-5.1-5.6-8.7c-.8-3.5-.4-7.3 1-10.7c.2-.6.5-1.3.8-1.9c1.3-2.5 3.3-4.6 5.8-6.1a15.36 15.36 0 0 1 5.7-1.4c4.7.8 9.6 1.6 13.5 4.2a15.36 15.36 0 0 1 4.1 4.5c2.2 4 2.7 8.5 1.4 12.7c-1.1 3.6-3.5 6.7-6.6 8.5c-2.5.5-4.6-2-6.1-4.2zm71.6-53.1c-1.5 2.2-3.7 3.7-6.1 4.2c3.1-1.8 5.5-4.9 6.6-8.5c1.3-4.2.8-8.7-1.4-12.7a15.35 15.35 0 0 0-4.2-4.6c-3.9-2.4-8.8-3.2-13.5-2.4a15.36 15.36 0 0 0-5.7 1.4c-2.5 1.5-4.5 3.6-5.8 6.2c-.3.6-.6 1.3-.8 1.9c-1.4 3.4-1.8 7.2-1 10.7c.8 3.6 2.8 6.7 5.6 8.8c2.9 2.1 6.4 3.2 10.1 3.2c3.6 0 7.1-1 10.2-3c.6-.4 1.3-.8 1.9-1.3zm-36.5 19.1c-3.6 0-7.1-1-10.1-3.1c-2.8-2.1-4.8-5.1-5.6-8.7c-.8-3.5-.4-7.3 1-10.7c.2-.6.5-1.3.8-1.9c1.3-2.5 3.3-4.6 5.8-6.1a15.36 15.36 0 0 1 5.7-1.4c4.7.8 9.6 1.6 13.5 4.2a15.36 15.36 0 0 1 4.1 4.5c2.2 4 2.7 8.5 1.4 12.7c-1.1 3.6-3.5 6.7-6.6 8.5c-2.5.5-4.6-2-6.1-4.2z"></path></svg>